<?xml version="1.0" encoding="UTF-8"?>
<!DOCTYPE svg PUBLIC "-//W3C//DTD SVG 1.1//EN" "http://www.w3.org/Graphics/SVG/1.1/DTD/svg11.dtd">
<svg xmlns="http://www.w3.org/2000/svg" version="1.1" width="500px" height="500px" style="shape-rendering:geometricPrecision; text-rendering:geometricPrecision; image-rendering:optimizeQuality; fill-rule:evenodd; clip-rule:evenodd" xmlns:xlink="http://www.w3.org/1999/xlink">
<g><path style="opacity:1" fill="#28bdbe" d="M 328.5,24.5 C 363.767,25.1603 399.1,25.827 434.5,26.5C 451.667,56.1667 468.833,85.8333 486,115.5C 486.552,118.419 485.885,121.086 484,123.5C 467.293,152.415 450.46,181.249 433.5,210C 397.833,210.667 362.167,210.667 326.5,210C 308.574,179.481 290.907,148.814 273.5,118C 290.617,87.3816 307.95,56.8816 325.5,26.5C 326.602,25.8243 327.602,25.1577 328.5,24.5 Z"/></g>
<g><path style="opacity:0.995" fill="#d78661" d="M 254.5,154.5 C 227.197,153.359 199.863,153.193 172.5,154C 171.74,155.441 171.074,156.941 170.5,158.5C 170.043,159.298 169.376,159.631 168.5,159.5C 169.086,157.16 170.086,154.993 171.5,153C 185.333,152.833 199.167,152.667 213,152.5C 227.183,152.501 241.017,153.167 254.5,154.5 Z"/></g>
<g><path style="opacity:1" fill="#f9753a" d="M 254.5,154.5 C 255.674,155.514 256.34,156.847 256.5,158.5C 256.536,162.2 258.203,164.867 261.5,166.5C 261.8,172.608 264.466,177.275 269.5,180.5C 270.674,181.514 271.34,182.847 271.5,184.5C 273.054,188.302 274.054,192.302 274.5,196.5C 275.833,196.5 277.167,196.5 278.5,196.5C 278.427,198.027 279.094,199.027 280.5,199.5C 281.674,200.514 282.34,201.847 282.5,203.5C 283.311,208.465 285.644,212.465 289.5,215.5C 289.427,217.027 290.094,218.027 291.5,218.5C 291.5,221.167 291.5,223.833 291.5,226.5C 289.952,226.821 289.285,227.821 289.5,229.5C 288.504,229.414 287.671,229.748 287,230.5C 284.738,233.453 283.571,236.786 283.5,240.5C 282.5,240.5 281.5,240.5 280.5,240.5C 280.978,243.278 279.978,245.278 277.5,246.5C 276.13,249.418 275.13,252.418 274.5,255.5C 272.088,255.694 271.088,257.027 271.5,259.5C 270.5,259.5 269.5,259.5 268.5,259.5C 268.992,263.29 268.159,263.956 266,261.5C 265.833,261.833 265.667,262.167 265.5,262.5C 266.357,265.451 266.357,268.451 265.5,271.5C 262.688,272.895 261.354,275.229 261.5,278.5C 260.094,278.973 259.427,279.973 259.5,281.5C 258.833,281.833 258.167,282.167 257.5,282.5C 256.5,282.5 255.5,282.5 254.5,282.5C 254.5,284.167 254.5,285.833 254.5,287.5C 253.5,287.5 252.5,287.5 251.5,287.5C 251.5,288.5 251.5,289.5 251.5,290.5C 225.167,290.5 198.833,290.5 172.5,290.5C 171.061,288.412 170.394,286.079 170.5,283.5C 169.5,283.5 168.5,283.5 167.5,283.5C 167.646,280.446 166.313,278.446 163.5,277.5C 161.61,270.828 158.943,264.494 155.5,258.5C 154.476,257.147 153.143,256.48 151.5,256.5C 151.051,252.952 150.051,249.619 148.5,246.5C 147.5,246.5 146.5,246.5 145.5,246.5C 145.785,244.712 145.452,243.045 144.5,241.5C 141.851,235.815 138.517,230.815 134.5,226.5C 133.781,224.236 133.448,221.903 133.5,219.5C 133.932,218.29 134.599,217.29 135.5,216.5C 137.408,215.514 138.408,213.848 138.5,211.5C 140.931,209.954 142.264,207.621 142.5,204.5C 143.376,204.631 144.043,204.298 144.5,203.5C 146.058,201.009 147.058,198.343 147.5,195.5C 149.759,194.656 150.759,192.989 150.5,190.5C 151.833,190.5 153.167,190.5 154.5,190.5C 154.946,186.302 155.946,182.302 157.5,178.5C 159.408,177.514 160.408,175.848 160.5,173.5C 160.66,171.847 161.326,170.514 162.5,169.5C 166.029,167.112 168.029,163.779 168.5,159.5C 169.376,159.631 170.043,159.298 170.5,158.5C 171.074,156.941 171.74,155.441 172.5,154C 199.863,153.193 227.197,153.359 254.5,154.5 Z"/></g>
<g><path style="opacity:1" fill="#efa07a" d="M 256.5,158.5 C 258.664,160.822 260.331,163.489 261.5,166.5C 258.203,164.867 256.536,162.2 256.5,158.5 Z"/></g>
<g><path style="opacity:1" fill="#ef9a6f" d="M 168.5,159.5 C 168.029,163.779 166.029,167.112 162.5,169.5C 164,165.827 166,162.494 168.5,159.5 Z"/></g>
<g><path style="opacity:1" fill="#ef956a" d="M 261.5,166.5 C 264.669,170.833 267.336,175.5 269.5,180.5C 264.466,177.275 261.8,172.608 261.5,166.5 Z"/></g>
<g><path style="opacity:1" fill="#e99f79" d="M 160.5,173.5 C 160.408,175.848 159.408,177.514 157.5,178.5C 157.75,176.326 158.75,174.659 160.5,173.5 Z"/></g>
<g><path style="opacity:1" fill="#f08c5c" d="M 157.5,178.5 C 155.946,182.302 154.946,186.302 154.5,190.5C 153.167,190.5 151.833,190.5 150.5,190.5C 152.332,186.164 154.665,182.164 157.5,178.5 Z"/></g>
<g><path style="opacity:1" fill="#ef9e78" d="M 150.5,190.5 C 150.759,192.989 149.759,194.656 147.5,195.5C 148.11,193.566 149.11,191.899 150.5,190.5 Z"/></g>
<g><path style="opacity:1" fill="#ef8b60" d="M 271.5,184.5 C 274.623,187.976 276.957,191.976 278.5,196.5C 277.167,196.5 275.833,196.5 274.5,196.5C 274.054,192.302 273.054,188.302 271.5,184.5 Z"/></g>
<g><path style="opacity:0.455" fill="#f9c6a1" d="M 278.5,196.5 C 279.906,196.973 280.573,197.973 280.5,199.5C 279.094,199.027 278.427,198.027 278.5,196.5 Z"/></g>
<g><path style="opacity:1" fill="#ec986f" d="M 147.5,195.5 C 147.058,198.343 146.058,201.009 144.5,203.5C 144.043,204.298 143.376,204.631 142.5,204.5C 143.41,201.008 145.076,198.008 147.5,195.5 Z"/></g>
<g><path style="opacity:1" fill="#ef9e7b" d="M 142.5,204.5 C 142.264,207.621 140.931,209.954 138.5,211.5C 139.079,208.669 140.412,206.336 142.5,204.5 Z"/></g>
<g><path style="opacity:1" fill="#ee9b76" d="M 282.5,203.5 C 285.623,206.976 287.957,210.976 289.5,215.5C 285.644,212.465 283.311,208.465 282.5,203.5 Z"/></g>
<g><path style="opacity:1" fill="#f5a47e" d="M 138.5,211.5 C 138.408,213.848 137.408,215.514 135.5,216.5C 135.75,214.326 136.75,212.659 138.5,211.5 Z"/></g>
<g><path style="opacity:0.424" fill="#fbc6b3" d="M 289.5,215.5 C 290.906,215.973 291.573,216.973 291.5,218.5C 290.094,218.027 289.427,217.027 289.5,215.5 Z"/></g>
<g><path style="opacity:1" fill="#f0a47b" d="M 291.5,218.5 C 294.167,221.167 294.167,223.833 291.5,226.5C 291.5,223.833 291.5,221.167 291.5,218.5 Z"/></g>
<g><path style="opacity:0.961" fill="#efb692" d="M 133.5,219.5 C 133.448,221.903 133.781,224.236 134.5,226.5C 131.266,224.428 130.933,222.095 133.5,219.5 Z"/></g>
<g><path style="opacity:0.835" fill="#f0b497" d="M 291.5,226.5 C 291.573,228.027 290.906,229.027 289.5,229.5C 289.285,227.821 289.952,226.821 291.5,226.5 Z"/></g>
<g><path style="opacity:1" fill="#f1a47f" d="M 134.5,226.5 C 138.517,230.815 141.851,235.815 144.5,241.5C 145.452,243.045 145.785,244.712 145.5,246.5C 141.329,240.162 137.663,233.496 134.5,226.5 Z"/></g>
<g><path style="opacity:1" fill="#ee9e78" d="M 289.5,229.5 C 288.258,233.655 286.258,237.322 283.5,240.5C 283.571,236.786 284.738,233.453 287,230.5C 287.671,229.748 288.504,229.414 289.5,229.5 Z"/></g>
<g><path style="opacity:1" fill="#ea986f" d="M 145.5,246.5 C 146.5,246.5 147.5,246.5 148.5,246.5C 150.051,249.619 151.051,252.952 151.5,256.5C 149.137,253.451 147.137,250.118 145.5,246.5 Z"/></g>
<g><path style="opacity:1" fill="#f09b71" d="M 283.5,240.5 C 280.863,245.784 277.863,250.784 274.5,255.5C 275.13,252.418 276.13,249.418 277.5,246.5C 279.978,245.278 280.978,243.278 280.5,240.5C 281.5,240.5 282.5,240.5 283.5,240.5 Z"/></g>
<g><path style="opacity:0.784" fill="#f16f85" d="M 117.5,265.5 C 114.886,263.21 112.553,260.543 110.5,257.5C 88.4348,256.179 66.4348,256.179 44.5,257.5C 55.4797,256.168 66.8131,255.501 78.5,255.5C 89.8333,255.667 101.167,255.833 112.5,256C 114.426,259.076 116.092,262.242 117.5,265.5 Z"/></g>
<g><path style="opacity:1" fill="#ef9163" d="M 151.5,256.5 C 153.143,256.48 154.476,257.147 155.5,258.5C 158.943,264.494 161.61,270.828 163.5,277.5C 159.251,270.671 155.251,263.671 151.5,256.5 Z"/></g>
<g><path style="opacity:1" fill="#f17086" d="M 44.5,257.5 C 43.6889,262.465 41.3556,266.465 37.5,269.5C 39.0435,264.976 41.3768,260.976 44.5,257.5 Z"/></g>
<g><path style="opacity:1" fill="#fe3457" d="M 117.5,265.5 C 117.076,269.002 118.41,271.335 121.5,272.5C 121.076,276.002 122.41,278.335 125.5,279.5C 125.216,282.857 126.549,285.191 129.5,286.5C 128.916,289.285 129.916,290.952 132.5,291.5C 132.241,293.989 133.241,295.656 135.5,296.5C 135.511,298.547 135.844,300.547 136.5,302.5C 139.143,305.619 141.143,309.119 142.5,313C 140.568,318.796 137.568,323.13 133.5,326C 134.38,327.356 134.714,328.856 134.5,330.5C 133.167,330.5 131.833,330.5 130.5,330.5C 130.324,334.365 129.324,338.032 127.5,341.5C 125.077,342.712 124.077,344.712 124.5,347.5C 123.325,347.281 122.325,347.614 121.5,348.5C 122.246,349.736 122.579,351.07 122.5,352.5C 121.083,355.669 119.417,358.669 117.5,361.5C 116.5,361.5 115.5,361.5 114.5,361.5C 114.277,364.509 113.277,367.176 111.5,369.5C 89.4899,369.833 67.4899,369.5 45.5,368.5C 44.4944,365.171 42.4944,362.838 39.5,361.5C 39.5,361.167 39.5,360.833 39.5,360.5C 38.7802,356.269 36.7802,352.936 33.5,350.5C 33.7148,348.821 33.0481,347.821 31.5,347.5C 31.5,347.167 31.5,346.833 31.5,346.5C 31.7409,343.966 30.7409,342.3 28.5,341.5C 24.6147,334.397 21.2813,327.064 18.5,319.5C 17.5,319.5 16.5,319.5 15.5,319.5C 15.7148,317.821 15.0481,316.821 13.5,316.5C 13.5,316.167 13.5,315.833 13.5,315.5C 13.5,313.833 13.5,312.167 13.5,310.5C 14.9063,310.027 15.573,309.027 15.5,307.5C 15.7497,305.326 16.7497,303.659 18.5,302.5C 19.3764,302.631 20.0431,302.298 20.5,301.5C 22.0577,299.009 23.0577,296.343 23.5,293.5C 25.1703,293.249 26.6703,292.582 28,291.5C 28.2752,288.588 29.1086,285.921 30.5,283.5C 30.5,282.833 30.5,282.167 30.5,281.5C 33.5902,280.335 34.9236,278.002 34.5,274.5C 37.0838,273.952 38.0838,272.285 37.5,269.5C 41.3556,266.465 43.6889,262.465 44.5,257.5C 66.4348,256.179 88.4348,256.179 110.5,257.5C 112.553,260.543 114.886,263.21 117.5,265.5 Z"/></g>
<g><path style="opacity:1" fill="#f18d5e" d="M 274.5,255.5 C 272.003,261.165 269.003,266.498 265.5,271.5C 266.357,268.451 266.357,265.451 265.5,262.5C 265.667,262.167 265.833,261.833 266,261.5C 268.159,263.956 268.992,263.29 268.5,259.5C 269.5,259.5 270.5,259.5 271.5,259.5C 271.088,257.027 272.088,255.694 274.5,255.5 Z"/></g>
<g><path style="opacity:1" fill="#f06f81" d="M 117.5,265.5 C 119.588,267.336 120.921,269.669 121.5,272.5C 118.41,271.335 117.076,269.002 117.5,265.5 Z"/></g>
<g><path style="opacity:1" fill="#f07485" d="M 37.5,269.5 C 38.0838,272.285 37.0838,273.952 34.5,274.5C 34.7497,272.326 35.7497,270.659 37.5,269.5 Z"/></g>
<g><path style="opacity:1" fill="#ef6e80" d="M 121.5,272.5 C 123.588,274.336 124.921,276.669 125.5,279.5C 122.41,278.335 121.076,276.002 121.5,272.5 Z"/></g>
<g><path style="opacity:0.549" fill="#f3b299" d="M 265.5,271.5 C 264.416,274.004 263.083,276.337 261.5,278.5C 261.354,275.229 262.688,272.895 265.5,271.5 Z"/></g>
<g><path style="opacity:1" fill="#ef6d7f" d="M 34.5,274.5 C 34.9236,278.002 33.5902,280.335 30.5,281.5C 31.0787,278.669 32.412,276.336 34.5,274.5 Z"/></g>
<g><path style="opacity:0.267" fill="#facdba" d="M 261.5,278.5 C 261.573,280.027 260.906,281.027 259.5,281.5C 259.427,279.973 260.094,278.973 261.5,278.5 Z"/></g>
<g><path style="opacity:0.404" fill="#fcb3bd" d="M 30.5,281.5 C 30.5,282.167 30.5,282.833 30.5,283.5C 29.8333,283.833 29.1667,284.167 28.5,284.5C 28.427,282.973 29.0937,281.973 30.5,281.5 Z"/></g>
<g><path style="opacity:1" fill="#f1778a" d="M 125.5,279.5 C 127.588,281.336 128.921,283.669 129.5,286.5C 126.549,285.191 125.216,282.857 125.5,279.5 Z"/></g>
<g><path style="opacity:1" fill="#eea37e" d="M 259.5,281.5 C 258.921,284.331 257.588,286.664 255.5,288.5C 255.253,286.142 255.919,284.142 257.5,282.5C 258.167,282.167 258.833,281.833 259.5,281.5 Z"/></g>
<g><path style="opacity:1" fill="#ee596f" d="M 30.5,283.5 C 29.1086,285.921 28.2752,288.588 28,291.5C 26.6703,292.582 25.1703,293.249 23.5,293.5C 24.7738,290.24 26.4405,287.24 28.5,284.5C 29.1667,284.167 29.8333,283.833 30.5,283.5 Z"/></g>
<g><path style="opacity:1" fill="#ec7888" d="M 129.5,286.5 C 131.25,287.659 132.25,289.326 132.5,291.5C 129.916,290.952 128.916,289.285 129.5,286.5 Z"/></g>
<g><path style="opacity:1" fill="#ed7847" d="M 257.5,282.5 C 255.919,284.142 255.253,286.142 255.5,288.5C 254.357,288.908 253.357,289.575 252.5,290.5C 225.67,291.829 199.003,291.829 172.5,290.5C 198.833,290.5 225.167,290.5 251.5,290.5C 251.5,289.5 251.5,288.5 251.5,287.5C 252.5,287.5 253.5,287.5 254.5,287.5C 254.5,285.833 254.5,284.167 254.5,282.5C 255.5,282.5 256.5,282.5 257.5,282.5 Z"/></g>
<g><path style="opacity:0.999" fill="#db8864" d="M 163.5,277.5 C 166.313,278.446 167.646,280.446 167.5,283.5C 168.5,283.5 169.5,283.5 170.5,283.5C 170.394,286.079 171.061,288.412 172.5,290.5C 199.003,291.829 225.67,291.829 252.5,290.5C 253.357,289.575 254.357,288.908 255.5,288.5C 255.461,289.583 255.127,290.583 254.5,291.5C 226.839,292.667 199.173,292.833 171.5,292C 168.604,287.277 165.938,282.443 163.5,277.5 Z"/></g>
<g><path style="opacity:1" fill="#f47385" d="M 132.5,291.5 C 133.89,292.899 134.89,294.566 135.5,296.5C 133.241,295.656 132.241,293.989 132.5,291.5 Z"/></g>
<g><path style="opacity:1" fill="#ea687a" d="M 23.5,293.5 C 23.0577,296.343 22.0577,299.009 20.5,301.5C 20.0431,302.298 19.3764,302.631 18.5,302.5C 19.4097,299.008 21.0764,296.008 23.5,293.5 Z"/></g>
<g><path style="opacity:0.4" fill="#faaeba" d="M 15.5,307.5 C 15.573,309.027 14.9063,310.027 13.5,310.5C 13.427,308.973 14.0937,307.973 15.5,307.5 Z"/></g>
<g><path style="opacity:0.859" fill="#eaa0ac" d="M 13.5,310.5 C 13.5,312.167 13.5,313.833 13.5,315.5C 11.0776,313.952 11.0776,312.286 13.5,310.5 Z"/></g>
<g><path style="opacity:1" fill="#f26779" d="M 135.5,296.5 C 138.669,300.833 141.336,305.5 143.5,310.5C 143.5,312.5 143.5,314.5 143.5,316.5C 136.99,328.864 129.99,340.864 122.5,352.5C 122.579,351.07 122.246,349.736 121.5,348.5C 122.325,347.614 123.325,347.281 124.5,347.5C 124.077,344.712 125.077,342.712 127.5,341.5C 129.324,338.032 130.324,334.365 130.5,330.5C 131.833,330.5 133.167,330.5 134.5,330.5C 134.714,328.856 134.38,327.356 133.5,326C 137.568,323.13 140.568,318.796 142.5,313C 141.143,309.119 139.143,305.619 136.5,302.5C 135.844,300.547 135.511,298.547 135.5,296.5 Z"/></g>
<g><path style="opacity:0.98" fill="#e792a8" d="M 143.5,310.5 C 146.167,312.5 146.167,314.5 143.5,316.5C 143.5,314.5 143.5,312.5 143.5,310.5 Z"/></g>
<g><path style="opacity:0.984" fill="#f196a6" d="M 13.5,316.5 C 15.0481,316.821 15.7148,317.821 15.5,319.5C 14.5987,318.71 13.9321,317.71 13.5,316.5 Z"/></g>
<g><path style="opacity:1" fill="#f17f91" d="M 15.5,319.5 C 16.5,319.5 17.5,319.5 18.5,319.5C 21.2813,327.064 24.6147,334.397 28.5,341.5C 23.666,334.504 19.3327,327.171 15.5,319.5 Z"/></g>
<g><path style="opacity:0.807" fill="#c79cf7" d="M 170.5,334.5 C 197.664,333.336 224.997,333.17 252.5,334C 253.914,335.993 254.914,338.16 255.5,340.5C 254.5,340.5 253.5,340.5 252.5,340.5C 252.617,338.516 251.95,336.85 250.5,335.5C 223.842,334.5 197.175,334.167 170.5,334.5 Z"/></g>
<g><path style="opacity:1" fill="#b777fe" d="M 170.5,334.5 C 197.175,334.167 223.842,334.5 250.5,335.5C 251.95,336.85 252.617,338.516 252.5,340.5C 253.5,340.5 254.5,340.5 255.5,340.5C 254.916,343.285 255.916,344.952 258.5,345.5C 258.427,347.027 259.094,348.027 260.5,348.5C 261.674,349.514 262.34,350.847 262.5,352.5C 264.059,357.905 265.893,363.239 268,368.5C 268.333,368.167 268.667,367.833 269,367.5C 270.307,369.192 271.807,370.525 273.5,371.5C 273.216,374.857 274.549,377.191 277.5,378.5C 276.916,381.285 277.916,382.952 280.5,383.5C 280.241,385.989 281.241,387.656 283.5,388.5C 283.803,392.774 285.47,396.441 288.5,399.5C 289.484,402.428 289.817,405.428 289.5,408.5C 289.5,409.167 289.167,409.5 288.5,409.5C 283.834,414.335 280.168,420.002 277.5,426.5C 274.985,427.2 274.318,428.533 275.5,430.5C 273.995,431.842 273.328,433.508 273.5,435.5C 270.932,437.027 269.599,439.361 269.5,442.5C 268.504,442.414 267.671,442.748 267,443.5C 266.506,445.134 266.34,446.801 266.5,448.5C 265.5,448.5 264.5,448.5 263.5,448.5C 263.5,450.167 263.5,451.833 263.5,453.5C 260.916,454.048 259.916,455.715 260.5,458.5C 258.241,459.344 257.241,461.011 257.5,463.5C 256.5,463.5 255.5,463.5 254.5,463.5C 254.635,465.554 253.968,467.221 252.5,468.5C 251.566,469.568 251.232,470.901 251.5,472.5C 224.833,472.5 198.167,472.5 171.5,472.5C 169.62,470.245 168.62,467.578 168.5,464.5C 167.5,464.5 166.5,464.5 165.5,464.5C 165.785,462.712 165.452,461.045 164.5,459.5C 161.492,454.148 158.492,448.814 155.5,443.5C 154.583,442.873 153.583,442.539 152.5,442.5C 152.5,442.167 152.5,441.833 152.5,441.5C 150.299,436.265 147.966,431.098 145.5,426C 144.644,424.405 143.311,423.572 141.5,423.5C 141.5,423.167 141.5,422.833 141.5,422.5C 141.625,419.392 140.292,417.392 137.5,416.5C 137.5,416.167 137.5,415.833 137.5,415.5C 137.682,413.409 137.348,411.409 136.5,409.5C 135.675,408.614 134.675,408.281 133.5,408.5C 132.167,405.167 132.167,401.833 133.5,398.5C 136.451,397.191 137.784,394.857 137.5,391.5C 139.931,389.954 141.264,387.621 141.5,384.5C 143.104,383.713 143.771,382.38 143.5,380.5C 143.5,379.833 143.833,379.5 144.5,379.5C 146.665,377.029 148.832,374.362 151,371.5C 151.49,370.207 151.657,368.873 151.5,367.5C 155.389,364.985 157.389,361.319 157.5,356.5C 159.759,355.656 160.759,353.989 160.5,351.5C 161.906,351.027 162.573,350.027 162.5,348.5C 165.148,345.458 167.648,342.125 170,338.5C 170.49,337.207 170.657,335.873 170.5,334.5 Z"/></g>
<g><path style="opacity:1" fill="#ed7f92" d="M 28.5,341.5 C 30.7409,342.3 31.7409,343.966 31.5,346.5C 29.7497,345.341 28.7497,343.674 28.5,341.5 Z"/></g>
<g><path style="opacity:1" fill="#c297f0" d="M 170.5,334.5 C 170.657,335.873 170.49,337.207 170,338.5C 167.648,342.125 165.148,345.458 162.5,348.5C 164.664,343.5 167.331,338.833 170.5,334.5 Z"/></g>
<g><path style="opacity:1" fill="#c29ef0" d="M 255.5,340.5 C 257.25,341.659 258.25,343.326 258.5,345.5C 255.916,344.952 254.916,343.285 255.5,340.5 Z"/></g>
<g><path style="opacity:1" fill="#eb8d98" d="M 31.5,347.5 C 33.0481,347.821 33.7148,348.821 33.5,350.5C 32.5987,349.71 31.9321,348.71 31.5,347.5 Z"/></g>
<g><path style="opacity:0.388" fill="#e1c7fb" d="M 258.5,345.5 C 259.906,345.973 260.573,346.973 260.5,348.5C 259.094,348.027 258.427,347.027 258.5,345.5 Z"/></g>
<g><path style="opacity:0.51" fill="#dcbef9" d="M 162.5,348.5 C 162.573,350.027 161.906,351.027 160.5,351.5C 160.427,349.973 161.094,348.973 162.5,348.5 Z"/></g>
<g><path style="opacity:1" fill="#ef8898" d="M 33.5,350.5 C 36.7802,352.936 38.7802,356.269 39.5,360.5C 37.0002,357.506 35.0002,354.173 33.5,350.5 Z"/></g>
<g><path style="opacity:1" fill="#cca5f2" d="M 160.5,351.5 C 160.759,353.989 159.759,355.656 157.5,356.5C 158.11,354.566 159.11,352.899 160.5,351.5 Z"/></g>
<g><path style="opacity:1" fill="#f79aaa" d="M 117.5,361.5 C 116.099,364.634 114.432,367.634 112.5,370.5C 89.6702,371.829 67.0036,371.829 44.5,370.5C 67.0062,370.831 89.3396,370.497 111.5,369.5C 113.277,367.176 114.277,364.509 114.5,361.5C 115.5,361.5 116.5,361.5 117.5,361.5 Z"/></g>
<g><path style="opacity:1" fill="#c396f0" d="M 157.5,356.5 C 157.389,361.319 155.389,364.985 151.5,367.5C 152.742,363.345 154.742,359.678 157.5,356.5 Z"/></g>
<g><path style="opacity:1" fill="#bf92f3" d="M 262.5,352.5 C 266.921,358.334 270.588,364.668 273.5,371.5C 271.807,370.525 270.307,369.192 269,367.5C 268.667,367.833 268.333,368.167 268,368.5C 265.893,363.239 264.059,357.905 262.5,352.5 Z"/></g>
<g><path style="opacity:1" fill="#d94f65" d="M 39.5,361.5 C 42.4944,362.838 44.4944,365.171 45.5,368.5C 67.4899,369.5 89.4899,369.833 111.5,369.5C 89.3396,370.497 67.0062,370.831 44.5,370.5C 42.5797,367.661 40.9131,364.661 39.5,361.5 Z"/></g>
<g><path style="opacity:1" fill="#c6a0f0" d="M 273.5,371.5 C 275.588,373.336 276.921,375.669 277.5,378.5C 274.549,377.191 273.216,374.857 273.5,371.5 Z"/></g>
<g><path style="opacity:1" fill="#c69fef" d="M 151.5,367.5 C 151.657,368.873 151.49,370.207 151,371.5C 148.832,374.362 146.665,377.029 144.5,379.5C 146.043,374.976 148.377,370.976 151.5,367.5 Z"/></g>
<g><path style="opacity:1" fill="#c79ff1" d="M 277.5,378.5 C 279.25,379.659 280.25,381.326 280.5,383.5C 277.916,382.952 276.916,381.285 277.5,378.5 Z"/></g>
<g><path style="opacity:0.663" fill="#d3baf1" d="M 143.5,380.5 C 143.771,382.38 143.104,383.713 141.5,384.5C 141.66,382.847 142.326,381.514 143.5,380.5 Z"/></g>
<g><path style="opacity:1" fill="#c5a1ee" d="M 280.5,383.5 C 281.89,384.899 282.89,386.566 283.5,388.5C 281.241,387.656 280.241,385.989 280.5,383.5 Z"/></g>
<g><path style="opacity:1" fill="#caa3f3" d="M 141.5,384.5 C 141.264,387.621 139.931,389.954 137.5,391.5C 138.079,388.669 139.412,386.336 141.5,384.5 Z"/></g>
<g><path style="opacity:1" fill="#c7a2ed" d="M 283.5,388.5 C 286.726,393.271 289.726,398.271 292.5,403.5C 291.725,405.396 290.725,407.063 289.5,408.5C 289.817,405.428 289.484,402.428 288.5,399.5C 285.47,396.441 283.803,392.774 283.5,388.5 Z"/></g>
<g><path style="opacity:1" fill="#c49cef" d="M 137.5,391.5 C 137.784,394.857 136.451,397.191 133.5,398.5C 134.079,395.669 135.412,393.336 137.5,391.5 Z"/></g>
<g><path style="opacity:0.969" fill="#cba8f1" d="M 133.5,398.5 C 132.167,401.833 132.167,405.167 133.5,408.5C 129.5,405.167 129.5,401.833 133.5,398.5 Z"/></g>
<g><path style="opacity:1" fill="#bf95f1" d="M 133.5,408.5 C 134.675,408.281 135.675,408.614 136.5,409.5C 137.348,411.409 137.682,413.409 137.5,415.5C 135.412,413.664 134.079,411.331 133.5,408.5 Z"/></g>
<g><path style="opacity:1" fill="#c79ff0" d="M 288.5,409.5 C 284.291,418.688 279.291,427.355 273.5,435.5C 273.328,433.508 273.995,431.842 275.5,430.5C 274.318,428.533 274.985,427.2 277.5,426.5C 280.168,420.002 283.834,414.335 288.5,409.5 Z"/></g>
<g><path style="opacity:0.937" fill="#c8a4ee" d="M 137.5,416.5 C 140.292,417.392 141.625,419.392 141.5,422.5C 139.684,420.882 138.351,418.882 137.5,416.5 Z"/></g>
<g><path style="opacity:0.992" fill="#cba7ee" d="M 141.5,423.5 C 143.311,423.572 144.644,424.405 145.5,426C 147.966,431.098 150.299,436.265 152.5,441.5C 148.346,435.87 144.679,429.87 141.5,423.5 Z"/></g>
<g><path style="opacity:1" fill="#c8a3ed" d="M 273.5,435.5 C 272.921,438.331 271.588,440.664 269.5,442.5C 269.599,439.361 270.932,437.027 273.5,435.5 Z"/></g>
<g><path style="opacity:1" fill="#c7a1ee" d="M 269.5,442.5 C 269.008,444.819 268.008,446.819 266.5,448.5C 266.34,446.801 266.506,445.134 267,443.5C 267.671,442.748 268.504,442.414 269.5,442.5 Z"/></g>
<g><path style="opacity:1" fill="#cba3f1" d="M 266.5,448.5 C 265.737,450.368 264.737,452.035 263.5,453.5C 263.5,451.833 263.5,450.167 263.5,448.5C 264.5,448.5 265.5,448.5 266.5,448.5 Z"/></g>
<g><path style="opacity:1" fill="#c49dee" d="M 152.5,442.5 C 153.583,442.539 154.583,442.873 155.5,443.5C 158.492,448.814 161.492,454.148 164.5,459.5C 165.452,461.045 165.785,462.712 165.5,464.5C 160.678,457.532 156.344,450.199 152.5,442.5 Z"/></g>
<g><path style="opacity:1" fill="#c6a3ed" d="M 263.5,453.5 C 262.89,455.434 261.89,457.101 260.5,458.5C 259.916,455.715 260.916,454.048 263.5,453.5 Z"/></g>
<g><path style="opacity:1" fill="#d1b0f0" d="M 260.5,458.5 C 260.25,460.674 259.25,462.341 257.5,463.5C 257.241,461.011 258.241,459.344 260.5,458.5 Z"/></g>
<g><path style="opacity:1" fill="#c69fee" d="M 257.5,463.5 C 256.59,466.992 254.924,469.992 252.5,472.5C 252.5,471.167 252.5,469.833 252.5,468.5C 253.968,467.221 254.635,465.554 254.5,463.5C 255.5,463.5 256.5,463.5 257.5,463.5 Z"/></g>
<g><path style="opacity:0.984" fill="#c9a5f0" d="M 165.5,464.5 C 166.5,464.5 167.5,464.5 168.5,464.5C 168.62,467.578 169.62,470.245 171.5,472.5C 171.5,472.833 171.5,473.167 171.5,473.5C 168.783,471.091 166.783,468.091 165.5,464.5 Z"/></g>
<g><path style="opacity:0.965" fill="#ae80e6" d="M 252.5,468.5 C 252.5,469.833 252.5,471.167 252.5,472.5C 225.672,473.498 198.672,473.831 171.5,473.5C 171.5,473.167 171.5,472.833 171.5,472.5C 198.167,472.5 224.833,472.5 251.5,472.5C 251.232,470.901 251.566,469.568 252.5,468.5 Z"/></g>
</svg>
